<?xml version="1.0" encoding="UTF-8"?>
<svg width="430px" height="125px" viewBox="0 0 430 125" version="1.1" xmlns="http://www.w3.org/2000/svg" xmlns:xlink="http://www.w3.org/1999/xlink">
    <title>Github logo</title>
    <g id="Github-logo" stroke="none" stroke-width="1" fill="none" fill-rule="evenodd">
        <g id="Group" transform="translate(34.000000, 23.000000)" fill-rule="nonzero">
            <g id="icons8-docker" fill="#2395EC">
                <path d="M88.1215406,39.6045599 C87.8801035,39.414596 85.6235957,37.7291319 80.8635713,37.7291319 C79.6062415,37.7347191 78.352626,37.8408754 77.1138682,38.0476008 C76.192693,31.8011406 71.1355154,28.8660119 70.9015071,28.7300574 L69.623748,28 L68.7824327,29.19938 C67.7293957,30.8122108 66.7989345,32.4771886 66.3476329,34.345167 C65.4951744,37.9116463 66.0133354,41.2602257 67.8445426,44.1227211 C65.6307506,45.3425874 61.8587609,45.4506061 61.1418786,45.4766796 L2.79211479,45.4766796 C1.25806091,45.4785419 0.0137314895,46.7058578 0.00444544907,48.2218443 C-0.0642712503,53.3117596 0.660039905,58.5637029 2.42995922,63.3425989 C4.45245883,68.5908174 7.46299315,72.4571417 11.3779878,74.8223786 C15.7647133,77.4800109 22.892678,79 30.9733904,79 C34.6228043,79.0108965 38.2666466,78.6849781 41.8547726,78.0238292 C46.8432335,77.1168446 51.6441164,75.3922703 56.0568429,72.9208771 C59.6932563,70.8368613 62.965657,68.1866785 65.7496119,65.070898 C70.4019182,59.8599272 73.1728726,54.0585785 75.2343736,48.9016171 C75.5110976,48.9016171 75.7878216,48.9016171 76.0552596,48.9016171 C81.1495814,48.9016171 84.2808342,46.8846473 86.0080378,45.1954585 C87.1557924,44.1171339 88.0528239,42.8041481 88.63413,41.3496205 L89,40.2917823 L88.1215406,39.6045599 Z" id="Path"></path>
                <path d="M15,44 L9,44 C7.896,44 7,43.104 7,42 L7,36 C7,34.896 7.896,34 9,34 L15,34 C16.104,34 17,34.896 17,36 L17,42 C17,43.104 16.104,44 15,44 Z" id="Path"></path>
                <path d="M26,44 L20,44 C18.896,44 18,43.104 18,42 L18,36 C18,34.896 18.896,34 20,34 L26,34 C27.104,34 28,34.896 28,36 L28,42 C28,43.104 27.104,44 26,44 Z" id="Path"></path>
                <path d="M37,44 L31,44 C29.896,44 29,43.104 29,42 L29,36 C29,34.896 29.896,34 31,34 L37,34 C38.104,34 39,34.896 39,36 L39,42 C39,43.104 38.104,44 37,44 Z" id="Path"></path>
                <path d="M48,44 L42,44 C40.896,44 40,43.104 40,42 L40,36 C40,34.896 40.896,34 42,34 L48,34 C49.104,34 50,34.896 50,36 L50,42 C50,43.104 49.104,44 48,44 Z" id="Path"></path>
                <path d="M26,10 L20,10 C18.896,10 18,9.104 18,8 L18,2 C18,0.896 18.896,0 20,0 L26,0 C27.104,0 28,0.896 28,2 L28,8 C28,9.104 27.104,10 26,10 Z" id="Path"></path>
                <path d="M37,10 L31,10 C29.896,10 29,9.104 29,8 L29,2 C29,0.896 29.896,0 31,0 L37,0 C38.104,0 39,0.896 39,2 L39,8 C39,9.104 38.104,10 37,10 Z" id="Path"></path>
                <path d="M15,10 L9,10 C7.896,10 7,9.104 7,8 L7,2 C7,0.896 7.896,0 9,0 L15,0 C16.104,0 17,0.896 17,2 L17,8 C17,9.104 16.104,10 15,10 Z" id="Path"></path>
                <path d="M48,10 L42,10 C40.896,10 40,9.104 40,8 L40,2 C40,0.896 40.896,0 42,0 L48,0 C49.104,0 50,0.896 50,2 L50,8 C50,9.104 49.104,10 48,10 Z" id="Path"></path>
                <path d="M15,32 L9,32 C7.896,32 7,31.104 7,30 L7,24 C7,22.896 7.896,22 9,22 L15,22 C16.104,22 17,22.896 17,24 L17,30 C17,31.104 16.104,32 15,32 Z" id="Path"></path>
                <path d="M15,21 L9,21 C7.896,21 7,20.104 7,19 L7,13 C7,11.896 7.896,11 9,11 L15,11 C16.104,11 17,11.896 17,13 L17,19 C17,20.104 16.104,21 15,21 Z" id="Path"></path>
            </g>
            <g id="Contexto" transform="translate(107.600000, 17.400000)" fill="#2C2E2F">
                <path d="M16.74,43.2 C13.06,43.2 10.01,42.52 7.59,41.16 C5.17,39.8 3.34,37.9 2.1,35.46 C0.86,33.02 0.18,30.18 0.06,26.94 C0.02,25.3 0,23.54 0,21.66 C0,19.78 0.02,17.98 0.06,16.26 C0.18,13.02 0.86,10.18 2.1,7.74 C3.34,5.3 5.17,3.4 7.59,2.04 C10.01,0.68 13.06,7.10542736e-15 16.74,7.10542736e-15 C19.5,7.10542736e-15 21.92,0.38 24,1.14 C26.08,1.9 27.81,2.92 29.19,4.2 C30.57,5.48 31.62,6.91 32.34,8.49 C33.06,10.07 33.46,11.7 33.54,13.38 C33.58,13.74 33.47,14.04 33.21,14.28 C32.95,14.52 32.64,14.64 32.28,14.64 L28.98,14.64 C28.62,14.64 28.31,14.54 28.05,14.34 C27.79,14.14 27.6,13.78 27.48,13.26 C26.8,10.14 25.53,8 23.67,6.84 C21.81,5.68 19.5,5.1 16.74,5.1 C13.5,5.1 10.94,6.01 9.06,7.83 C7.18,9.65 6.18,12.56 6.06,16.56 C5.94,19.84 5.94,23.2 6.06,26.64 C6.18,30.64 7.18,33.55 9.06,35.37 C10.94,37.19 13.5,38.1 16.74,38.1 C19.5,38.1 21.81,37.52 23.67,36.36 C25.53,35.2 26.8,33.06 27.48,29.94 C27.6,29.42 27.79,29.06 28.05,28.86 C28.31,28.66 28.62,28.56 28.98,28.56 L32.28,28.56 C32.64,28.56 32.95,28.67 33.21,28.89 C33.47,29.11 33.58,29.4 33.54,29.76 C33.46,31.44 33.06,33.08 32.34,34.68 C31.62,36.28 30.57,37.72 29.19,39 C27.81,40.28 26.08,41.3 24,42.06 C21.92,42.82 19.5,43.2 16.74,43.2 Z" id="Path"></path>
                <path d="M53.58,43.2 C50.54,43.2 48,42.62 45.96,41.46 C43.92,40.3 42.36,38.69 41.28,36.63 C40.2,34.57 39.6,32.22 39.48,29.58 C39.44,28.9 39.42,28.03 39.42,26.97 C39.42,25.91 39.44,25.06 39.48,24.42 C39.6,21.74 40.21,19.38 41.31,17.34 C42.41,15.3 43.98,13.7 46.02,12.54 C48.06,11.38 50.58,10.8 53.58,10.8 C56.58,10.8 59.1,11.38 61.14,12.54 C63.18,13.7 64.75,15.3 65.85,17.34 C66.95,19.38 67.56,21.74 67.68,24.42 C67.72,25.06 67.74,25.91 67.74,26.97 C67.74,28.03 67.72,28.9 67.68,29.58 C67.56,32.22 66.96,34.57 65.88,36.63 C64.8,38.69 63.24,40.3 61.2,41.46 C59.16,42.62 56.62,43.2 53.58,43.2 Z M53.58,38.58 C56.06,38.58 58.04,37.79 59.52,36.21 C61,34.63 61.8,32.32 61.92,29.28 C61.96,28.68 61.98,27.92 61.98,27 C61.98,26.08 61.96,25.32 61.92,24.72 C61.8,21.68 61,19.37 59.52,17.79 C58.04,16.21 56.06,15.42 53.58,15.42 C51.1,15.42 49.11,16.21 47.61,17.79 C46.11,19.37 45.32,21.68 45.24,24.72 C45.2,25.32 45.18,26.08 45.18,27 C45.18,27.92 45.2,28.68 45.24,29.28 C45.32,32.32 46.11,34.63 47.61,36.21 C49.11,37.79 51.1,38.58 53.58,38.58 Z" id="Shape"></path>
                <path d="M76.62,42.6 C76.22,42.6 75.89,42.47 75.63,42.21 C75.37,41.95 75.24,41.62 75.24,41.22 L75.24,12.78 C75.24,12.38 75.37,12.05 75.63,11.79 C75.89,11.53 76.22,11.4 76.62,11.4 L79.44,11.4 C79.84,11.4 80.17,11.53 80.43,11.79 C80.69,12.05 80.82,12.38 80.82,12.78 L80.82,15.42 C81.86,14.06 83.17,12.95 84.75,12.09 C86.33,11.23 88.36,10.8 90.84,10.8 C93.44,10.8 95.65,11.37 97.47,12.51 C99.29,13.65 100.67,15.23 101.61,17.25 C102.55,19.27 103.02,21.62 103.02,24.3 L103.02,41.22 C103.02,41.62 102.89,41.95 102.63,42.21 C102.37,42.47 102.04,42.6 101.64,42.6 L98.64,42.6 C98.24,42.6 97.91,42.47 97.65,42.21 C97.39,41.95 97.26,41.62 97.26,41.22 L97.26,24.6 C97.26,21.8 96.58,19.61 95.22,18.03 C93.86,16.45 91.86,15.66 89.22,15.66 C86.74,15.66 84.75,16.45 83.25,18.03 C81.75,19.61 81,21.8 81,24.6 L81,41.22 C81,41.62 80.87,41.95 80.61,42.21 C80.35,42.47 80.02,42.6 79.62,42.6 L76.62,42.6 Z" id="Path"></path>
                <path d="M123.78,42.6 C121.54,42.6 119.72,42.17 118.32,41.31 C116.92,40.45 115.9,39.23 115.26,37.65 C114.62,36.07 114.3,34.2 114.3,32.04 L114.3,16.2 L109.62,16.2 C109.22,16.2 108.89,16.07 108.63,15.81 C108.37,15.55 108.24,15.22 108.24,14.82 L108.24,12.78 C108.24,12.38 108.37,12.05 108.63,11.79 C108.89,11.53 109.22,11.4 109.62,11.4 L114.3,11.4 L114.3,1.38 C114.3,0.98 114.43,0.65 114.69,0.39 C114.95,0.13 115.28,7.10542736e-15 115.68,7.10542736e-15 L118.5,7.10542736e-15 C118.9,7.10542736e-15 119.23,0.13 119.49,0.39 C119.75,0.65 119.88,0.98 119.88,1.38 L119.88,11.4 L127.32,11.4 C127.76,11.4 128.1,11.53 128.34,11.79 C128.58,12.05 128.7,12.38 128.7,12.78 L128.7,14.82 C128.7,15.22 128.58,15.55 128.34,15.81 C128.1,16.07 127.76,16.2 127.32,16.2 L119.88,16.2 L119.88,31.62 C119.88,33.5 120.2,34.98 120.84,36.06 C121.48,37.14 122.62,37.68 124.26,37.68 L127.92,37.68 C128.32,37.68 128.65,37.81 128.91,38.07 C129.17,38.33 129.3,38.66 129.3,39.06 L129.3,41.22 C129.3,41.62 129.17,41.95 128.91,42.21 C128.65,42.47 128.32,42.6 127.92,42.6 L123.78,42.6 Z" id="Path"></path>
                <path d="M147.54,43.2 C143.38,43.2 140.08,41.93 137.64,39.39 C135.2,36.85 133.86,33.38 133.62,28.98 C133.58,28.46 133.56,27.79 133.56,26.97 C133.56,26.15 133.58,25.48 133.62,24.96 C133.78,22.12 134.44,19.63 135.6,17.49 C136.76,15.35 138.35,13.7 140.37,12.54 C142.39,11.38 144.76,10.8 147.48,10.8 C150.52,10.8 153.07,11.44 155.13,12.72 C157.19,14 158.76,15.82 159.84,18.18 C160.92,20.54 161.46,23.3 161.46,26.46 L161.46,27.48 C161.46,27.92 161.33,28.26 161.07,28.5 C160.81,28.74 160.48,28.86 160.08,28.86 L139.32,28.86 C139.32,28.9 139.32,28.98 139.32,29.1 C139.32,29.22 139.32,29.32 139.32,29.4 C139.4,31.04 139.76,32.57 140.4,33.99 C141.04,35.41 141.97,36.56 143.19,37.44 C144.41,38.32 145.84,38.76 147.48,38.76 C148.92,38.76 150.12,38.54 151.08,38.1 C152.04,37.66 152.82,37.17 153.42,36.63 C154.02,36.09 154.42,35.66 154.62,35.34 C154.98,34.86 155.26,34.57 155.46,34.47 C155.66,34.37 155.98,34.32 156.42,34.32 L159.36,34.32 C159.72,34.32 160.03,34.43 160.29,34.65 C160.55,34.87 160.66,35.18 160.62,35.58 C160.58,36.18 160.26,36.91 159.66,37.77 C159.06,38.63 158.21,39.48 157.11,40.32 C156.01,41.16 154.65,41.85 153.03,42.39 C151.41,42.93 149.58,43.2 147.54,43.2 Z M139.32,24.72 L155.76,24.72 L155.76,24.54 C155.76,22.74 155.43,21.14 154.77,19.74 C154.11,18.34 153.16,17.23 151.92,16.41 C150.68,15.59 149.2,15.18 147.48,15.18 C145.76,15.18 144.29,15.59 143.07,16.41 C141.85,17.23 140.92,18.34 140.28,19.74 C139.64,21.14 139.32,22.74 139.32,24.54 L139.32,24.72 Z" id="Shape"></path>
                <path d="M167.22,42.6 C166.9,42.6 166.61,42.48 166.35,42.24 C166.09,42 165.96,41.7 165.96,41.34 C165.96,41.22 165.99,41.07 166.05,40.89 C166.11,40.71 166.22,40.5 166.38,40.26 L176.82,26.64 L167.04,13.74 C166.88,13.5 166.77,13.3 166.71,13.14 C166.65,12.98 166.62,12.82 166.62,12.66 C166.62,12.3 166.74,12 166.98,11.76 C167.22,11.52 167.52,11.4 167.88,11.4 L170.94,11.4 C171.38,11.4 171.72,11.51 171.96,11.73 C172.2,11.95 172.38,12.16 172.5,12.36 L180.48,22.74 L188.46,12.42 C188.62,12.22 188.81,12 189.03,11.76 C189.25,11.52 189.58,11.4 190.02,11.4 L192.96,11.4 C193.32,11.4 193.62,11.52 193.86,11.76 C194.1,12 194.22,12.3 194.22,12.66 C194.22,12.82 194.19,12.98 194.13,13.14 C194.07,13.3 193.96,13.5 193.8,13.74 L183.9,26.76 L194.34,40.26 C194.5,40.5 194.61,40.7 194.67,40.86 C194.73,41.02 194.76,41.18 194.76,41.34 C194.76,41.7 194.64,42 194.4,42.24 C194.16,42.48 193.86,42.6 193.5,42.6 L190.32,42.6 C189.92,42.6 189.6,42.5 189.36,42.3 C189.12,42.1 188.92,41.9 188.76,41.7 L180.36,30.72 L171.84,41.7 C171.68,41.86 171.49,42.05 171.27,42.27 C171.05,42.49 170.72,42.6 170.28,42.6 L167.22,42.6 Z" id="Path"></path>
                <path d="M213.18,42.6 C210.94,42.6 209.12,42.17 207.72,41.31 C206.32,40.45 205.3,39.23 204.66,37.65 C204.02,36.07 203.7,34.2 203.7,32.04 L203.7,16.2 L199.02,16.2 C198.62,16.2 198.29,16.07 198.03,15.81 C197.77,15.55 197.64,15.22 197.64,14.82 L197.64,12.78 C197.64,12.38 197.77,12.05 198.03,11.79 C198.29,11.53 198.62,11.4 199.02,11.4 L203.7,11.4 L203.7,1.38 C203.7,0.98 203.83,0.65 204.09,0.39 C204.35,0.13 204.68,7.10542736e-15 205.08,7.10542736e-15 L207.9,7.10542736e-15 C208.3,7.10542736e-15 208.63,0.13 208.89,0.39 C209.15,0.65 209.28,0.98 209.28,1.38 L209.28,11.4 L216.72,11.4 C217.16,11.4 217.5,11.53 217.74,11.79 C217.98,12.05 218.1,12.38 218.1,12.78 L218.1,14.82 C218.1,15.22 217.98,15.55 217.74,15.81 C217.5,16.07 217.16,16.2 216.72,16.2 L209.28,16.2 L209.28,31.62 C209.28,33.5 209.6,34.98 210.24,36.06 C210.88,37.14 212.02,37.68 213.66,37.68 L217.32,37.68 C217.72,37.68 218.05,37.81 218.31,38.07 C218.57,38.33 218.7,38.66 218.7,39.06 L218.7,41.22 C218.7,41.62 218.57,41.95 218.31,42.21 C218.05,42.47 217.72,42.6 217.32,42.6 L213.18,42.6 Z" id="Path"></path>
                <path d="M237.24,43.2 C234.2,43.2 231.66,42.62 229.62,41.46 C227.58,40.3 226.02,38.69 224.94,36.63 C223.86,34.57 223.26,32.22 223.14,29.58 C223.1,28.9 223.08,28.03 223.08,26.97 C223.08,25.91 223.1,25.06 223.14,24.42 C223.26,21.74 223.87,19.38 224.97,17.34 C226.07,15.3 227.64,13.7 229.68,12.54 C231.72,11.38 234.24,10.8 237.24,10.8 C240.24,10.8 242.76,11.38 244.8,12.54 C246.84,13.7 248.41,15.3 249.51,17.34 C250.61,19.38 251.22,21.74 251.34,24.42 C251.38,25.06 251.4,25.91 251.4,26.97 C251.4,28.03 251.38,28.9 251.34,29.58 C251.22,32.22 250.62,34.57 249.54,36.63 C248.46,38.69 246.9,40.3 244.86,41.46 C242.82,42.62 240.28,43.2 237.24,43.2 Z M237.24,38.58 C239.72,38.58 241.7,37.79 243.18,36.21 C244.66,34.63 245.46,32.32 245.58,29.28 C245.62,28.68 245.64,27.92 245.64,27 C245.64,26.08 245.62,25.32 245.58,24.72 C245.46,21.68 244.66,19.37 243.18,17.79 C241.7,16.21 239.72,15.42 237.24,15.42 C234.76,15.42 232.77,16.21 231.27,17.79 C229.77,19.37 228.98,21.68 228.9,24.72 C228.86,25.32 228.84,26.08 228.84,27 C228.84,27.92 228.86,28.68 228.9,29.28 C228.98,32.32 229.77,34.63 231.27,36.21 C232.77,37.79 234.76,38.58 237.24,38.58 Z" id="Shape"></path>
            </g>
        </g>
    </g>
</svg>