<?xml version="1.0" encoding="UTF-8"?>
<svg width="227px" height="50px" viewBox="0 0 227 50" version="1.1" xmlns="http://www.w3.org/2000/svg" xmlns:xlink="http://www.w3.org/1999/xlink">
    <title>Github logo</title>
    <g id="Github-logo" stroke="none" stroke-width="1" fill="none" fill-rule="evenodd">
        <g id="Group" fill-rule="nonzero">
            <g id="icons8-docker" fill="#2395EC">
                <path d="M55.4472615,25.0661772 C55.295346,24.9459468 53.8755209,23.8791974 50.8804494,23.8791974 C50.0893205,23.8827336 49.3005287,23.9499211 48.5210856,24.08076 C47.9414698,20.1273041 44.7594254,18.2696278 44.6121843,18.1835806 L43.808201,17.721519 L43.2788341,18.4806202 C42.616249,19.5013992 42.0307902,20.5551826 41.7468252,21.7374475 C41.2104468,23.9947128 41.5364807,26.1140669 42.688701,27.9257729 C41.2957532,28.6978401 38.9223664,28.7662064 38.4712944,28.7827086 L1.75683628,28.7827086 C0.791588888,28.7838873 0.00864003836,29.5606695 0.0027971365,30.5201546 C-0.0404403373,33.74162 0.415306008,37.0656348 1.5289631,40.0902525 C2.80154713,43.4119098 4.69581591,45.8589504 7.15918334,47.3559358 C9.91937018,49.0379816 14.4043816,50 19.4888748,50 C21.7851353,50.0068965 24.07789,49.800619 26.3355872,49.3821704 C29.4743941,48.8081295 32.4951744,47.7166268 35.2717214,46.1524539 C37.5598017,44.8334565 39.6188403,43.1561257 41.3705423,41.1841126 C44.2978362,37.8860299 46.0413581,34.2142902 47.3384823,30.9503906 C47.5126008,30.9503906 47.6867192,30.9503906 47.8549948,30.9503906 C51.0604108,30.9503906 53.0306373,29.6738274 54.117417,28.6047206 C54.8395997,27.9222367 55.404024,27.091233 55.7697897,26.1706459 L56,25.501128 L55.4472615,25.0661772 Z" id="Path"></path>
                <path d="M9.43820225,27.8481013 L5.66292135,27.8481013 C4.96826966,27.8481013 4.40449438,27.2810127 4.40449438,26.5822785 L4.40449438,22.7848101 C4.40449438,22.0860759 4.96826966,21.5189873 5.66292135,21.5189873 L9.43820225,21.5189873 C10.1328539,21.5189873 10.6966292,22.0860759 10.6966292,22.7848101 L10.6966292,26.5822785 C10.6966292,27.2810127 10.1328539,27.8481013 9.43820225,27.8481013 Z" id="Path"></path>
                <path d="M16.3595506,27.8481013 L12.5842697,27.8481013 C11.889618,27.8481013 11.3258427,27.2810127 11.3258427,26.5822785 L11.3258427,22.7848101 C11.3258427,22.0860759 11.889618,21.5189873 12.5842697,21.5189873 L16.3595506,21.5189873 C17.0542022,21.5189873 17.6179775,22.0860759 17.6179775,22.7848101 L17.6179775,26.5822785 C17.6179775,27.2810127 17.0542022,27.8481013 16.3595506,27.8481013 Z" id="Path"></path>
                <path d="M23.2808989,27.8481013 L19.505618,27.8481013 C18.8109663,27.8481013 18.247191,27.2810127 18.247191,26.5822785 L18.247191,22.7848101 C18.247191,22.0860759 18.8109663,21.5189873 19.505618,21.5189873 L23.2808989,21.5189873 C23.9755506,21.5189873 24.5393258,22.0860759 24.5393258,22.7848101 L24.5393258,26.5822785 C24.5393258,27.2810127 23.9755506,27.8481013 23.2808989,27.8481013 Z" id="Path"></path>
                <path d="M30.2022472,27.8481013 L26.4269663,27.8481013 C25.7323146,27.8481013 25.1685393,27.2810127 25.1685393,26.5822785 L25.1685393,22.7848101 C25.1685393,22.0860759 25.7323146,21.5189873 26.4269663,21.5189873 L30.2022472,21.5189873 C30.8968989,21.5189873 31.4606742,22.0860759 31.4606742,22.7848101 L31.4606742,26.5822785 C31.4606742,27.2810127 30.8968989,27.8481013 30.2022472,27.8481013 Z" id="Path"></path>
                <path d="M16.3595506,6.32911392 L12.5842697,6.32911392 C11.889618,6.32911392 11.3258427,5.76202532 11.3258427,5.06329114 L11.3258427,1.26582278 C11.3258427,0.567088608 11.889618,0 12.5842697,0 L16.3595506,0 C17.0542022,0 17.6179775,0.567088608 17.6179775,1.26582278 L17.6179775,5.06329114 C17.6179775,5.76202532 17.0542022,6.32911392 16.3595506,6.32911392 Z" id="Path"></path>
                <path d="M23.2808989,6.32911392 L19.505618,6.32911392 C18.8109663,6.32911392 18.247191,5.76202532 18.247191,5.06329114 L18.247191,1.26582278 C18.247191,0.567088608 18.8109663,0 19.505618,0 L23.2808989,0 C23.9755506,0 24.5393258,0.567088608 24.5393258,1.26582278 L24.5393258,5.06329114 C24.5393258,5.76202532 23.9755506,6.32911392 23.2808989,6.32911392 Z" id="Path"></path>
                <path d="M9.43820225,6.32911392 L5.66292135,6.32911392 C4.96826966,6.32911392 4.40449438,5.76202532 4.40449438,5.06329114 L4.40449438,1.26582278 C4.40449438,0.567088608 4.96826966,0 5.66292135,0 L9.43820225,0 C10.1328539,0 10.6966292,0.567088608 10.6966292,1.26582278 L10.6966292,5.06329114 C10.6966292,5.76202532 10.1328539,6.32911392 9.43820225,6.32911392 Z" id="Path"></path>
                <path d="M30.2022472,6.32911392 L26.4269663,6.32911392 C25.7323146,6.32911392 25.1685393,5.76202532 25.1685393,5.06329114 L25.1685393,1.26582278 C25.1685393,0.567088608 25.7323146,0 26.4269663,0 L30.2022472,0 C30.8968989,0 31.4606742,0.567088608 31.4606742,1.26582278 L31.4606742,5.06329114 C31.4606742,5.76202532 30.8968989,6.32911392 30.2022472,6.32911392 Z" id="Path"></path>
                <path d="M9.43820225,20.2531646 L5.66292135,20.2531646 C4.96826966,20.2531646 4.40449438,19.6860759 4.40449438,18.9873418 L4.40449438,15.1898734 C4.40449438,14.4911392 4.96826966,13.9240506 5.66292135,13.9240506 L9.43820225,13.9240506 C10.1328539,13.9240506 10.6966292,14.4911392 10.6966292,15.1898734 L10.6966292,18.9873418 C10.6966292,19.6860759 10.1328539,20.2531646 9.43820225,20.2531646 Z" id="Path"></path>
                <path d="M9.43820225,13.2911392 L5.66292135,13.2911392 C4.96826966,13.2911392 4.40449438,12.7240506 4.40449438,12.0253165 L4.40449438,8.2278481 C4.40449438,7.52911392 4.96826966,6.96202532 5.66292135,6.96202532 L9.43820225,6.96202532 C10.1328539,6.96202532 10.6966292,7.52911392 10.6966292,8.2278481 L10.6966292,12.0253165 C10.6966292,12.7240506 10.1328539,13.2911392 9.43820225,13.2911392 Z" id="Path"></path>
            </g>
            <g id="Contexto" transform="translate(68.000000, 11.000000)" fill="#2C2E2F">
                <path d="M10.5873508,27 C8.25990453,27 6.33090692,26.575 4.800358,25.725 C3.26980907,24.875 2.1124105,23.6875 1.32816229,22.1625 C0.543914081,20.6375 0.113842482,18.8625 0.037947494,16.8375 C0.0126491647,15.8125 0,14.7125 0,13.5375 C0,12.3625 0.0126491647,11.2375 0.037947494,10.1625 C0.113842482,8.1375 0.543914081,6.3625 1.32816229,4.8375 C2.1124105,3.3125 3.26980907,2.125 4.800358,1.275 C6.33090692,0.425 8.25990453,0 10.5873508,0 C12.3329356,0 13.8634845,0.2375 15.1789976,0.7125 C16.4945107,1.1875 17.5886635,1.825 18.4614558,2.625 C19.3342482,3.425 19.9983294,4.31875 20.4536993,5.30625 C20.9090692,6.29375 21.1620525,7.3125 21.2126492,8.3625 C21.2379475,8.5875 21.1683771,8.775 21.0039379,8.925 C20.8394988,9.075 20.6434368,9.15 20.4157518,9.15 L18.3286396,9.15 C18.1009547,9.15 17.9048926,9.0875 17.7404535,8.9625 C17.5760143,8.8375 17.4558473,8.6125 17.3799523,8.2875 C16.9498807,6.3375 16.1466587,5 14.9702864,4.275 C13.7939141,3.55 12.3329356,3.1875 10.5873508,3.1875 C8.53818616,3.1875 6.91909308,3.75625 5.7300716,4.89375 C4.54105012,6.03125 3.90859189,7.85 3.8326969,10.35 C3.75680191,12.4 3.75680191,14.5 3.8326969,16.65 C3.90859189,19.15 4.54105012,20.96875 5.7300716,22.10625 C6.91909308,23.24375 8.53818616,23.8125 10.5873508,23.8125 C12.3329356,23.8125 13.7939141,23.45 14.9702864,22.725 C16.1466587,22 16.9498807,20.6625 17.3799523,18.7125 C17.4558473,18.3875 17.5760143,18.1625 17.7404535,18.0375 C17.9048926,17.9125 18.1009547,17.85 18.3286396,17.85 L20.4157518,17.85 C20.6434368,17.85 20.8394988,17.91875 21.0039379,18.05625 C21.1683771,18.19375 21.2379475,18.375 21.2126492,18.6 C21.1620525,19.65 20.9090692,20.675 20.4536993,21.675 C19.9983294,22.675 19.3342482,23.575 18.4614558,24.375 C17.5886635,25.175 16.4945107,25.8125 15.1789976,26.2875 C13.8634845,26.7625 12.3329356,27 10.5873508,27 Z" id="Path"></path>
                <path d="M33.8871122,27 C31.9644391,27 30.3579952,26.6375 29.0677804,25.9125 C27.7775656,25.1875 26.7909308,24.18125 26.1078759,22.89375 C25.424821,21.60625 25.0453461,20.1375 24.9694511,18.4875 C24.9441527,18.0625 24.9315036,17.51875 24.9315036,16.85625 C24.9315036,16.19375 24.9441527,15.6625 24.9694511,15.2625 C25.0453461,13.5875 25.4311456,12.1125 26.1268496,10.8375 C26.8225537,9.5625 27.8155131,8.5625 29.1057279,7.8375 C30.3959427,7.1125 31.9897375,6.75 33.8871122,6.75 C35.7844869,6.75 37.3782816,7.1125 38.6684964,7.8375 C39.9587112,8.5625 40.9516706,9.5625 41.6473747,10.8375 C42.3430788,12.1125 42.7288783,13.5875 42.8047733,15.2625 C42.8300716,15.6625 42.8427208,16.19375 42.8427208,16.85625 C42.8427208,17.51875 42.8300716,18.0625 42.8047733,18.4875 C42.7288783,20.1375 42.3494033,21.60625 41.6663484,22.89375 C40.9832936,24.18125 39.9966587,25.1875 38.7064439,25.9125 C37.4162291,26.6375 35.8097852,27 33.8871122,27 Z M33.8871122,24.1125 C35.4556086,24.1125 36.7078759,23.61875 37.6439141,22.63125 C38.5799523,21.64375 39.0859189,20.2 39.1618138,18.3 C39.1871122,17.925 39.1997613,17.45 39.1997613,16.875 C39.1997613,16.3 39.1871122,15.825 39.1618138,15.45 C39.0859189,13.55 38.5799523,12.10625 37.6439141,11.11875 C36.7078759,10.13125 35.4556086,9.6375 33.8871122,9.6375 C32.3186158,9.6375 31.0600239,10.13125 30.1113365,11.11875 C29.1626492,12.10625 28.6630072,13.55 28.6124105,15.45 C28.5871122,15.825 28.574463,16.3 28.574463,16.875 C28.574463,17.45 28.5871122,17.925 28.6124105,18.3 C28.6630072,20.2 29.1626492,21.64375 30.1113365,22.63125 C31.0600239,23.61875 32.3186158,24.1125 33.8871122,24.1125 Z" id="Shape"></path>
                <path d="M48.4589499,26.625 C48.2059666,26.625 47.9972554,26.54375 47.8328162,26.38125 C47.6683771,26.21875 47.5861575,26.0125 47.5861575,25.7625 L47.5861575,7.9875 C47.5861575,7.7375 47.6683771,7.53125 47.8328162,7.36875 C47.9972554,7.20625 48.2059666,7.125 48.4589499,7.125 L50.2424821,7.125 C50.4954654,7.125 50.7041766,7.20625 50.8686158,7.36875 C51.0330549,7.53125 51.1152745,7.7375 51.1152745,7.9875 L51.1152745,9.6375 C51.773031,8.7875 52.6015513,8.09375 53.6008353,7.55625 C54.6001193,7.01875 55.8840095,6.75 57.452506,6.75 C59.0968974,6.75 60.4946301,7.10625 61.6457041,7.81875 C62.796778,8.53125 63.6695704,9.51875 64.2640811,10.78125 C64.8585919,12.04375 65.1558473,13.5125 65.1558473,15.1875 L65.1558473,25.7625 C65.1558473,26.0125 65.0736277,26.21875 64.9091885,26.38125 C64.7447494,26.54375 64.5360382,26.625 64.2830549,26.625 L62.3856802,26.625 C62.1326969,26.625 61.9239857,26.54375 61.7595465,26.38125 C61.5951074,26.21875 61.5128878,26.0125 61.5128878,25.7625 L61.5128878,15.375 C61.5128878,13.625 61.0828162,12.25625 60.222673,11.26875 C59.3625298,10.28125 58.0976134,9.7875 56.4279236,9.7875 C54.8594272,9.7875 53.6008353,10.28125 52.652148,11.26875 C51.7034606,12.25625 51.2291169,13.625 51.2291169,15.375 L51.2291169,25.7625 C51.2291169,26.0125 51.1468974,26.21875 50.9824582,26.38125 C50.8180191,26.54375 50.6093079,26.625 50.3563246,26.625 L48.4589499,26.625 Z" id="Path"></path>
                <path d="M78.2856802,26.625 C76.8689737,26.625 75.7178998,26.35625 74.8324582,25.81875 C73.9470167,25.28125 73.3019093,24.51875 72.897136,23.53125 C72.4923628,22.54375 72.2899761,21.375 72.2899761,20.025 L72.2899761,10.125 L69.3300716,10.125 C69.0770883,10.125 68.8683771,10.04375 68.7039379,9.88125 C68.5394988,9.71875 68.4572792,9.5125 68.4572792,9.2625 L68.4572792,7.9875 C68.4572792,7.7375 68.5394988,7.53125 68.7039379,7.36875 C68.8683771,7.20625 69.0770883,7.125 69.3300716,7.125 L72.2899761,7.125 L72.2899761,0.8625 C72.2899761,0.6125 72.3721957,0.40625 72.5366348,0.24375 C72.701074,0.08125 72.9097852,0 73.1627685,0 L74.9463007,0 C75.199284,0 75.4079952,0.08125 75.5724344,0.24375 C75.7368735,0.40625 75.8190931,0.6125 75.8190931,0.8625 L75.8190931,7.125 L80.5245823,7.125 C80.802864,7.125 81.0178998,7.20625 81.1696897,7.36875 C81.3214797,7.53125 81.3973747,7.7375 81.3973747,7.9875 L81.3973747,9.2625 C81.3973747,9.5125 81.3214797,9.71875 81.1696897,9.88125 C81.0178998,10.04375 80.802864,10.125 80.5245823,10.125 L75.8190931,10.125 L75.8190931,19.7625 C75.8190931,20.9375 76.0214797,21.8625 76.426253,22.5375 C76.8310263,23.2125 77.5520286,23.55 78.5892601,23.55 L80.9040573,23.55 C81.1570406,23.55 81.3657518,23.63125 81.5301909,23.79375 C81.6946301,23.95625 81.7768496,24.1625 81.7768496,24.4125 L81.7768496,25.7625 C81.7768496,26.0125 81.6946301,26.21875 81.5301909,26.38125 C81.3657518,26.54375 81.1570406,26.625 80.9040573,26.625 L78.2856802,26.625 Z" id="Path"></path>
                <path d="M93.3128878,27 C90.6818616,27 88.5947494,26.20625 87.0515513,24.61875 C85.5083532,23.03125 84.6608592,20.8625 84.5090692,18.1125 C84.4837709,17.7875 84.4711217,17.36875 84.4711217,16.85625 C84.4711217,16.34375 84.4837709,15.925 84.5090692,15.6 C84.6102625,13.825 85.027685,12.26875 85.7613365,10.93125 C86.4949881,9.59375 87.5005967,8.5625 88.7781623,7.8375 C90.0557279,7.1125 91.5546539,6.75 93.2749403,6.75 C95.1976134,6.75 96.8103819,7.15 98.1132458,7.95 C99.4161098,8.75 100.409069,9.8875 101.092124,11.3625 C101.775179,12.8375 102.116706,14.5625 102.116706,16.5375 L102.116706,17.175 C102.116706,17.45 102.034487,17.6625 101.870048,17.8125 C101.705609,17.9625 101.496897,18.0375 101.243914,18.0375 L88.1140811,18.0375 C88.1140811,18.0625 88.1140811,18.1125 88.1140811,18.1875 C88.1140811,18.2625 88.1140811,18.325 88.1140811,18.375 C88.1646778,19.4 88.3923628,20.35625 88.797136,21.24375 C89.2019093,22.13125 89.7900955,22.85 90.5616945,23.4 C91.3332936,23.95 92.2377088,24.225 93.2749403,24.225 C94.1856802,24.225 94.9446301,24.0875 95.55179,23.8125 C96.1589499,23.5375 96.6522673,23.23125 97.0317422,22.89375 C97.4112172,22.55625 97.6642005,22.2875 97.7906921,22.0875 C98.0183771,21.7875 98.1954654,21.60625 98.321957,21.54375 C98.4484487,21.48125 98.6508353,21.45 98.9291169,21.45 L100.788544,21.45 C101.016229,21.45 101.212291,21.51875 101.37673,21.65625 C101.541169,21.79375 101.61074,21.9875 101.585442,22.2375 C101.560143,22.6125 101.357757,23.06875 100.978282,23.60625 C100.598807,24.14375 100.061217,24.675 99.3655131,25.2 C98.6698091,25.725 97.8096659,26.15625 96.7850835,26.49375 C95.7605012,26.83125 94.6031026,27 93.3128878,27 Z M88.1140811,15.45 L98.5116945,15.45 L98.5116945,15.3375 C98.5116945,14.2125 98.3029833,13.2125 97.8855609,12.3375 C97.4681384,11.4625 96.8673031,10.76875 96.0830549,10.25625 C95.2988067,9.74375 94.3627685,9.4875 93.2749403,9.4875 C92.1871122,9.4875 91.2573986,9.74375 90.4857995,10.25625 C89.7142005,10.76875 89.1260143,11.4625 88.7212411,12.3375 C88.3164678,13.2125 88.1140811,14.2125 88.1140811,15.3375 L88.1140811,15.45 Z" id="Shape"></path>
                <path d="M105.759666,26.625 C105.557279,26.625 105.373866,26.55 105.209427,26.4 C105.044988,26.25 104.962768,26.0625 104.962768,25.8375 C104.962768,25.7625 104.981742,25.66875 105.01969,25.55625 C105.057637,25.44375 105.127208,25.3125 105.228401,25.1625 L111.831265,16.65 L105.645823,8.5875 C105.54463,8.4375 105.47506,8.3125 105.437112,8.2125 C105.399165,8.1125 105.380191,8.0125 105.380191,7.9125 C105.380191,7.6875 105.456086,7.5 105.607876,7.35 C105.759666,7.2 105.949403,7.125 106.177088,7.125 L108.112411,7.125 C108.390692,7.125 108.605728,7.19375 108.757518,7.33125 C108.909308,7.46875 109.02315,7.6 109.099045,7.725 L114.146062,14.2125 L119.193079,7.7625 C119.294272,7.6375 119.414439,7.5 119.55358,7.35 C119.692721,7.2 119.901432,7.125 120.179714,7.125 L122.039141,7.125 C122.266826,7.125 122.456563,7.2 122.608353,7.35 C122.760143,7.5 122.836038,7.6875 122.836038,7.9125 C122.836038,8.0125 122.817064,8.1125 122.779117,8.2125 C122.741169,8.3125 122.671599,8.4375 122.570406,8.5875 L116.309069,16.725 L122.911933,25.1625 C123.013126,25.3125 123.082697,25.4375 123.120644,25.5375 C123.158592,25.6375 123.177566,25.7375 123.177566,25.8375 C123.177566,26.0625 123.101671,26.25 122.949881,26.4 C122.798091,26.55 122.608353,26.625 122.380668,26.625 L120.369451,26.625 C120.116468,26.625 119.914081,26.5625 119.762291,26.4375 C119.610501,26.3125 119.48401,26.1875 119.382816,26.0625 L114.070167,19.2 L108.681623,26.0625 C108.58043,26.1625 108.460263,26.28125 108.321122,26.41875 C108.181981,26.55625 107.97327,26.625 107.694988,26.625 L105.759666,26.625 Z" id="Path"></path>
                <path d="M134.827446,26.625 C133.41074,26.625 132.259666,26.35625 131.374224,25.81875 C130.488783,25.28125 129.843675,24.51875 129.438902,23.53125 C129.034129,22.54375 128.831742,21.375 128.831742,20.025 L128.831742,10.125 L125.871838,10.125 C125.618854,10.125 125.410143,10.04375 125.245704,9.88125 C125.081265,9.71875 124.999045,9.5125 124.999045,9.2625 L124.999045,7.9875 C124.999045,7.7375 125.081265,7.53125 125.245704,7.36875 C125.410143,7.20625 125.618854,7.125 125.871838,7.125 L128.831742,7.125 L128.831742,0.8625 C128.831742,0.6125 128.913962,0.40625 129.078401,0.24375 C129.24284,0.08125 129.451551,0 129.704535,0 L131.488067,0 C131.74105,0 131.949761,0.08125 132.1142,0.24375 C132.27864,0.40625 132.360859,0.6125 132.360859,0.8625 L132.360859,7.125 L137.066348,7.125 C137.34463,7.125 137.559666,7.20625 137.711456,7.36875 C137.863246,7.53125 137.939141,7.7375 137.939141,7.9875 L137.939141,9.2625 C137.939141,9.5125 137.863246,9.71875 137.711456,9.88125 C137.559666,10.04375 137.34463,10.125 137.066348,10.125 L132.360859,10.125 L132.360859,19.7625 C132.360859,20.9375 132.563246,21.8625 132.968019,22.5375 C133.372792,23.2125 134.093795,23.55 135.131026,23.55 L137.445823,23.55 C137.698807,23.55 137.907518,23.63125 138.071957,23.79375 C138.236396,23.95625 138.318616,24.1625 138.318616,24.4125 L138.318616,25.7625 C138.318616,26.0125 138.236396,26.21875 138.071957,26.38125 C137.907518,26.54375 137.698807,26.625 137.445823,26.625 L134.827446,26.625 Z" id="Path"></path>
                <path d="M150.044391,27 C148.121718,27 146.515274,26.6375 145.22506,25.9125 C143.934845,25.1875 142.94821,24.18125 142.265155,22.89375 C141.5821,21.60625 141.202625,20.1375 141.12673,18.4875 C141.101432,18.0625 141.088783,17.51875 141.088783,16.85625 C141.088783,16.19375 141.101432,15.6625 141.12673,15.2625 C141.202625,13.5875 141.588425,12.1125 142.284129,10.8375 C142.979833,9.5625 143.972792,8.5625 145.263007,7.8375 C146.553222,7.1125 148.147017,6.75 150.044391,6.75 C151.941766,6.75 153.535561,7.1125 154.825776,7.8375 C156.11599,8.5625 157.10895,9.5625 157.804654,10.8375 C158.500358,12.1125 158.886158,13.5875 158.962053,15.2625 C158.987351,15.6625 159,16.19375 159,16.85625 C159,17.51875 158.987351,18.0625 158.962053,18.4875 C158.886158,20.1375 158.506683,21.60625 157.823628,22.89375 C157.140573,24.18125 156.153938,25.1875 154.863723,25.9125 C153.573508,26.6375 151.967064,27 150.044391,27 Z M150.044391,24.1125 C151.612888,24.1125 152.865155,23.61875 153.801193,22.63125 C154.737232,21.64375 155.243198,20.2 155.319093,18.3 C155.344391,17.925 155.357041,17.45 155.357041,16.875 C155.357041,16.3 155.344391,15.825 155.319093,15.45 C155.243198,13.55 154.737232,12.10625 153.801193,11.11875 C152.865155,10.13125 151.612888,9.6375 150.044391,9.6375 C148.475895,9.6375 147.217303,10.13125 146.268616,11.11875 C145.319928,12.10625 144.820286,13.55 144.76969,15.45 C144.744391,15.825 144.731742,16.3 144.731742,16.875 C144.731742,17.45 144.744391,17.925 144.76969,18.3 C144.820286,20.2 145.319928,21.64375 146.268616,22.63125 C147.217303,23.61875 148.475895,24.1125 150.044391,24.1125 Z" id="Shape"></path>
            </g>
        </g>
    </g>
</svg>